# This file uses centimeters as units for non-parametric coordinates.

mtllib stairs.mtl
g default
v -0.500000 -0.500000 -0.500000
v 0.500000 -0.500000 -0.500000
v -0.500000 -0.333333 -0.500000
v 0.500000 -0.333333 -0.500000
v -0.500000 -0.333333 -0.333333
v 0.500000 -0.333333 -0.333333
v -0.500000 -0.166667 -0.333333
v 0.500000 -0.166667 -0.333333
v -0.500000 -0.166667 -0.166667
v 0.500000 -0.166667 -0.166667
v -0.500000 0.000000 -0.166667
v 0.500000 0.000000 -0.166667
v -0.500000 0.000000 0.000000
v 0.500000 0.000000 0.000000
v -0.500000 0.166667 0.000000
v 0.500000 0.166667 0.000000
v -0.500000 0.166667 0.166667
v 0.500000 0.166667 0.166667
v -0.500000 0.333333 0.166667
v 0.500000 0.333333 0.166667
v -0.500000 0.333333 0.333333
v 0.500000 0.333333 0.333333
v -0.500000 0.500000 0.333333
v 0.500000 0.500000 0.333333
v -0.500000 0.500000 0.500000
v 0.500000 0.500000 0.500000
v 0.500000 -0.500000 -0.333333
v 0.500000 -0.500000 -0.166667
v 0.500000 -0.500000 0.000000
v 0.500000 -0.500000 0.166667
v 0.500000 -0.500000 0.333333
v 0.500000 -0.500000 0.500000
v -0.500000 -0.500000 -0.333333
v -0.500000 -0.500000 -0.166667
v -0.500000 -0.500000 0.000000
v -0.500000 -0.500000 0.166667
v -0.500000 -0.500000 0.333333
v -0.500000 -0.500000 0.500000
vt 0.688437 0.676369
vt 0.626479 0.679587
vt 0.623261 0.617629
vt 0.561303 0.620846
vt 0.558086 0.558888
vt 0.496127 0.562105
vt 0.492910 0.500147
vt 0.430952 0.503365
vt 0.427734 0.441406
vt 0.365776 0.444624
vt 0.362559 0.382666
vt 0.165920 0.610402
vt 0.110157 0.637599
vt 0.082960 0.581837
vt 0.193117 0.666165
vt 0.331840 0.667532
vt 0.414800 0.696098
vt 0.359038 0.723295
vt 0.497760 0.724663
vt 0.441997 0.751860
vt 0.000000 0.909407
vt 0.000000 0.847365
vt 0.372250 0.847365
vt 0.372250 0.909407
vt -0.000000 0.971449
vt 0.372250 0.971449
vt 0.000000 0.785324
vt 0.372250 0.785324
vt 0.376684 0.875917
vt 0.748934 0.875917
vt 0.000000 0.847365
vt 0.372250 0.847365
vt 0.750395 0.673152
vt 0.747178 0.611194
vt 0.743960 0.549235
vt 0.740743 0.487277
vt 0.737525 0.425319
vt 0.248880 0.638967
vt 0.276077 0.694730
vt 0.000000 0.909407
vt 0.546193 0.062066
vt 0.918443 0.062066
vt 0.918443 0.124108
vt 0.000000 0.723282
vt 0.376684 0.875917
vt 0.748934 0.875917
vt 0.748934 0.937958
vt 0.376684 0.813875
vt 0.484981 0.000024
vt 0.857231 0.000024
vt 0.857231 0.062066
vt -0.000000 0.785324
vt 0.376684 0.751833
vt 0.748935 0.751833
vt 0.748935 0.813875
vt 0.376684 0.937958
vt 0.612112 0.124108
vt 0.984362 0.124108
vt 0.984362 0.186149
vt 0.376684 1.000000
vt 0.748934 1.000000
vt 0.420226 0.000000
vt 0.685405 0.261247
vt 0.753613 0.735110
vt 0.691654 0.738327
vt 0.734308 0.363361
vt 0.027197 0.609034
vt -0.000000 0.553271
vt 0.055763 0.526074
vt 0.111525 0.498877
vt 0.167288 0.471679
vt 0.223050 0.444482
vt 0.278813 0.417284
vt 0.334576 0.390087
vt 0.085526 0.447827
vt -0.000000 0.085535
vt 0.362292 0.000009
vt 0.447818 0.362301
vt 0.641864 0.305444
vt 0.376684 0.044197
vt 0.748934 0.937958
vt 0.372250 0.785324
vt 0.748934 0.813875
vt 0.372250 0.723282
vt 0.372250 0.909407
vt 0.612112 0.186149
vt 0.376684 0.813875
vt 0.484981 0.062066
vt 0.376684 0.937958
vt 0.546193 0.124108
vn 1.000000 0.000000 0.000000
vn 1.000000 0.000000 0.000000
vn 1.000000 0.000000 0.000000
vn 1.000000 0.000000 0.000000
vn 1.000000 0.000000 0.000000
vn 1.000000 0.000000 0.000000
vn 1.000000 0.000000 0.000000
vn 1.000000 0.000000 0.000000
vn 1.000000 0.000000 0.000000
vn 1.000000 0.000000 0.000000
vn 1.000000 0.000000 0.000000
vn 1.000000 0.000000 0.000000
vn 1.000000 0.000000 0.000000
vn 1.000000 0.000000 0.000000
vn 1.000000 0.000000 0.000000
vn -1.000000 0.000000 0.000000
vn -1.000000 0.000000 0.000000
vn -1.000000 0.000000 0.000000
vn -1.000000 0.000000 0.000000
vn -1.000000 0.000000 0.000000
vn -1.000000 0.000000 0.000000
vn -1.000000 0.000000 0.000000
vn -1.000000 0.000000 0.000000
vn -1.000000 0.000000 0.000000
vn -1.000000 0.000000 0.000000
vn -1.000000 0.000000 0.000000
vn -1.000000 0.000000 0.000000
vn -1.000000 0.000000 0.000000
vn -1.000000 0.000000 0.000000
vn -1.000000 0.000000 0.000000
vn 0.000000 0.000000 -1.000000
vn 0.000000 0.000000 -1.000000
vn 0.000000 0.000000 -1.000000
vn 0.000000 0.000000 -1.000000
vn 0.000000 0.000000 -1.000000
vn 0.000000 0.000000 -1.000000
vn 0.000000 1.000000 0.000000
vn 0.000000 1.000000 0.000000
vn 0.000000 1.000000 0.000000
vn 0.000000 1.000000 0.000000
vn 0.000000 1.000000 0.000000
vn 0.000000 1.000000 0.000000
vn 0.000000 0.000000 -1.000000
vn 0.000000 0.000000 -1.000000
vn 0.000000 0.000000 -1.000000
vn 0.000000 0.000000 -1.000000
vn 0.000000 0.000000 -1.000000
vn 0.000000 0.000000 -1.000000
vn 0.000000 1.000000 0.000000
vn 0.000000 1.000000 0.000000
vn 0.000000 1.000000 0.000000
vn 0.000000 1.000000 0.000000
vn 0.000000 1.000000 0.000000
vn 0.000000 1.000000 0.000000
vn 0.000000 0.000000 -1.000000
vn 0.000000 0.000000 -1.000000
vn 0.000000 0.000000 -1.000000
vn 0.000000 0.000000 -1.000000
vn 0.000000 0.000000 -1.000000
vn 0.000000 0.000000 -1.000000
vn 0.000000 1.000000 0.000000
vn 0.000000 1.000000 0.000000
vn 0.000000 1.000000 0.000000
vn 0.000000 1.000000 0.000000
vn 0.000000 1.000000 0.000000
vn 0.000000 1.000000 0.000000
vn 0.000000 0.000000 -1.000000
vn 0.000000 0.000000 -1.000000
vn 0.000000 0.000000 -1.000000
vn 0.000000 0.000000 -1.000000
vn 0.000000 0.000000 -1.000000
vn 0.000000 0.000000 -1.000000
vn 0.000000 1.000000 0.000000
vn 0.000000 1.000000 0.000000
vn 0.000000 1.000000 0.000000
vn 0.000000 1.000000 0.000000
vn 0.000000 1.000000 0.000000
vn 0.000000 1.000000 0.000000
vn 0.000000 0.000000 -1.000000
vn 0.000000 0.000000 -1.000000
vn 0.000000 0.000000 -1.000000
vn 0.000000 0.000000 -1.000000
vn 0.000000 0.000000 -1.000000
vn 0.000000 0.000000 -1.000000
vn 0.000000 1.000000 0.000000
vn 0.000000 1.000000 0.000000
vn 0.000000 1.000000 0.000000
vn 0.000000 1.000000 0.000000
vn 0.000000 1.000000 0.000000
vn 0.000000 1.000000 0.000000
vn 0.000000 0.000000 -1.000000
vn 0.000000 0.000000 -1.000000
vn 0.000000 0.000000 -1.000000
vn 0.000000 0.000000 -1.000000
vn 0.000000 0.000000 -1.000000
vn 0.000000 0.000000 -1.000000
vn 0.000000 1.000000 0.000000
vn 0.000000 1.000000 0.000000
vn 0.000000 1.000000 0.000000
vn 0.000000 1.000000 0.000000
vn 0.000000 1.000000 0.000000
vn 0.000000 1.000000 0.000000
vn 1.000000 0.000000 0.000000
vn 1.000000 0.000000 0.000000
vn 1.000000 0.000000 0.000000
vn 1.000000 0.000000 0.000000
vn 1.000000 0.000000 0.000000
vn 1.000000 0.000000 0.000000
vn 1.000000 0.000000 0.000000
vn 1.000000 0.000000 0.000000
vn 1.000000 0.000000 0.000000
vn 1.000000 0.000000 0.000000
vn 1.000000 0.000000 0.000000
vn 1.000000 0.000000 0.000000
vn 1.000000 0.000000 0.000000
vn 1.000000 0.000000 0.000000
vn 1.000000 0.000000 0.000000
vn 1.000000 0.000000 0.000000
vn 1.000000 0.000000 0.000000
vn 1.000000 0.000000 0.000000
vn 1.000000 0.000000 0.000000
vn 1.000000 0.000000 0.000000
vn 1.000000 0.000000 0.000000
vn 1.000000 0.000000 0.000000
vn 1.000000 0.000000 0.000000
vn 1.000000 0.000000 0.000000
vn 1.000000 0.000000 0.000000
vn 1.000000 0.000000 0.000000
vn 1.000000 0.000000 0.000000
vn 1.000000 0.000000 0.000000
vn 1.000000 0.000000 0.000000
vn 1.000000 0.000000 0.000000
vn 1.000000 0.000000 0.000000
vn 1.000000 0.000000 0.000000
vn 1.000000 0.000000 0.000000
vn 1.000000 0.000000 0.000000
vn 1.000000 0.000000 0.000000
vn 1.000000 0.000000 0.000000
vn -1.000000 0.000000 0.000000
vn -1.000000 0.000000 0.000000
vn -1.000000 0.000000 0.000000
vn -1.000000 0.000000 0.000000
vn -1.000000 0.000000 0.000000
vn -1.000000 0.000000 0.000000
vn -1.000000 0.000000 0.000000
vn -1.000000 0.000000 0.000000
vn -1.000000 0.000000 0.000000
vn -1.000000 0.000000 0.000000
vn -1.000000 0.000000 0.000000
vn -1.000000 0.000000 0.000000
vn -1.000000 0.000000 0.000000
vn -1.000000 0.000000 0.000000
vn -1.000000 0.000000 0.000000
vn -1.000000 0.000000 0.000000
vn -1.000000 0.000000 0.000000
vn -1.000000 0.000000 0.000000
vn -1.000000 0.000000 0.000000
vn -1.000000 0.000000 0.000000
vn -1.000000 0.000000 0.000000
vn -1.000000 0.000000 0.000000
vn -1.000000 0.000000 0.000000
vn -1.000000 0.000000 0.000000
vn -1.000000 0.000000 0.000000
vn -1.000000 0.000000 0.000000
vn -1.000000 0.000000 0.000000
vn -1.000000 0.000000 0.000000
vn -1.000000 0.000000 0.000000
vn -1.000000 0.000000 0.000000
vn -1.000000 0.000000 0.000000
vn -1.000000 0.000000 0.000000
vn -1.000000 0.000000 0.000000
vn -1.000000 0.000000 0.000000
vn -1.000000 0.000000 0.000000
vn -1.000000 0.000000 0.000000
vn 0.000000 0.000000 1.000000
vn 0.000000 0.000000 1.000000
vn 0.000000 0.000000 1.000000
vn 0.000000 0.000000 1.000000
vn 0.000000 0.000000 1.000000
vn 0.000000 0.000000 1.000000
s off
g initialShadingGroup Visuals
f 6/1/1 8/2/2 10/3/3
f 10/3/4 12/4/5 14/5/6
f 14/5/7 16/6/8 18/7/9
f 18/7/10 20/8/11 22/9/12
f 22/9/13 24/10/14 26/11/15
f 9/12/16 7/13/17 5/14/18
f 13/38/19 11/15/20 9/12/21
f 17/16/22 15/39/23 13/38/24
f 21/17/25 19/18/26 17/16/27
f 25/19/28 23/20/29 21/17/30
f 4/21/31 2/22/32 1/23/33
f 1/23/34 3/24/35 4/21/36
f 6/90/37 4/41/38 3/42/39
f 3/42/40 5/43/41 6/90/42
f 8/25/43 6/40/44 5/85/45
f 5/85/46 7/26/47 8/25/48
f 10/89/49 8/45/50 7/46/51
f 7/46/52 9/47/53 10/89/54
f 12/27/55 10/44/56 9/84/57
f 9/84/58 11/28/59 12/27/60
f 14/88/61 12/49/62 11/50/63
f 11/50/64 13/51/65 14/88/66
f 16/29/67 14/48/68 13/83/69
f 13/83/70 15/30/71 16/29/72
f 18/87/73 16/53/74 15/54/75
f 15/54/76 17/55/77 18/87/78
f 20/31/79 18/52/80 17/82/81
f 17/82/82 19/32/83 20/31/84
f 22/86/85 20/57/86 19/58/87
f 19/58/88 21/59/89 22/86/90
f 24/60/91 22/56/92 21/81/93
f 21/81/94 23/61/95 24/60/96
f 26/80/97 24/62/98 23/63/99
f 23/63/100 25/79/101 26/80/102
f 6/1/103 27/33/104 2/64/105
f 2/64/106 4/65/107 6/1/108
f 10/3/109 28/34/110 27/33/111
f 27/33/112 6/1/113 10/3/114
f 14/5/115 29/35/116 28/34/117
f 28/34/118 10/3/119 14/5/120
f 18/7/121 30/36/122 29/35/123
f 29/35/124 14/5/125 18/7/126
f 22/9/127 31/37/128 30/36/129
f 30/36/130 18/7/131 22/9/132
f 26/11/133 32/66/134 31/37/135
f 31/37/136 22/9/137 26/11/138
f 3/67/139 1/68/140 33/69/141
f 33/69/142 5/14/143 3/67/144
f 5/14/145 33/69/146 34/70/147
f 34/70/148 9/12/149 5/14/150
f 9/12/151 34/70/152 35/71/153
f 35/71/154 13/38/155 9/12/156
f 13/38/157 35/71/158 36/72/159
f 36/72/160 17/16/161 13/38/162
f 17/16/163 36/72/164 37/73/165
f 37/73/166 21/17/167 17/16/168
f 21/17/169 37/73/170 38/74/171
f 38/74/172 25/19/173 21/17/174
f 25/75/175 38/76/176 32/77/177
f 32/77/178 26/78/179 25/75/180
