# ProBuilder 6.0.5
# https://unity3d.com/unity/features/worldbuilding/probuilder
# 5/14/2025 2:42:29 PM

mtllib ./stairs.mtl
o stairs

g Visuals
v -0.5 -0.5 -0.5
v 0.5 -0.5 -0.5
v -0.5 -0.3333333 -0.5
v 0.5 -0.3333333 -0.5
v -0.5 -0.3333333 -0.3333333
v 0.5 -0.3333333 -0.3333333
v -0.5 -0.1666667 -0.3333333
v 0.5 -0.1666667 -0.3333333
v -0.5 -0.1666667 -0.1666667
v 0.5 -0.1666667 -0.1666667
v -0.5 0 -0.1666667
v 0.5 0 -0.1666667
v -0.5 0 0
v 0.5 0 0
v -0.5 0.1666667 0
v 0.5 0.1666667 0
v -0.5 0.1666667 0.1666667
v 0.5 0.1666667 0.1666667
v -0.5 0.3333334 0.1666667
v 0.5 0.3333334 0.1666667
v -0.5 0.3333334 0.3333333
v 0.5 0.3333334 0.3333333
v -0.5 0.5 0.3333333
v 0.5 0.5 0.3333333
v -0.5 0.5 0.5
v 0.5 0.5 0.5
v 0.5 -0.5 -0.3333333
v 0.5 -0.5 -0.1666667
v 0.5 -0.5 0
v 0.5 -0.5 0.1666667
v 0.5 -0.5 0.3333333
v 0.5 -0.5 0.5
v -0.5 -0.5 -0.3333333
v -0.5 -0.5 -0.1666667
v -0.5 -0.5 0
v -0.5 -0.5 0.1666667
v -0.5 -0.5 0.3333333
v -0.5 -0.5 0.5

vt 0.5 -0.5
vt -0.5 -0.5
vt 0.5 -0.3333333
vt -0.5 -0.3333333
vt 0.5 -0.1666667
vt -0.5 -0.1666667
vt 0.5 0
vt -0.5 0
vt 0.5 0.1666667
vt -0.5 0.1666667
vt 0.5 0.3333334
vt -0.5 0.3333334
vt 0.5 0.5
vt -0.5 0.5
vt 0.3333333 -0.5
vt 0.3333333 -0.3333333
vt 0.1666667 -0.5
vt 0.1666667 -0.1666667
vt 0.3333333 -0.1666667
vt 0 -0.5
vt 0 0
vt 0.1666667 0
vt -0.1666667 -0.5
vt -0.1666667 0.1666667
vt 0 0.1666667
vt -0.3333333 -0.5
vt -0.3333333 0.3333334
vt -0.1666667 0.3333334
vt -0.3333333 0.5
vt -0.3333333 -0.3333333
vt -0.1666667 -0.1666667
vt -0.3333333 -0.1666667
vt -0.1666667 0
vt 0.1666667 0.1666667
vt 0.3333333 0.3333334
vt 0.1666667 0.3333334
vt 0.3333333 0.5

vn 0 0 -1
vn 0 1 0
vn 1 0 0
vn -1 0 0
vn 0 0 1

usemtl ProBuilderDefault
f 6/16/3 8/19/3 10/18/3
f 10/18/3 12/22/3 14/21/3
f 14/21/3 16/25/3 18/24/3
f 18/24/3 20/28/3 22/27/3
f 22/27/3 24/29/3 26/14/3
f 9/31/4 7/32/4 5/30/4
f 13/21/4 11/33/4 9/31/4
f 17/34/4 15/25/4 13/21/4
f 21/35/4 19/36/4 17/34/4
f 25/13/4 23/37/4 21/35/4
f 4/4/1 2/2/1 1/1/1
f 1/1/1 3/3/1 4/4/1
f 6/4/2 4/2/2 3/1/2
f 3/1/2 5/3/2 6/4/2
f 8/6/1 6/4/1 5/3/1
f 5/3/1 7/5/1 8/6/1
f 10/6/2 8/4/2 7/3/2
f 7/3/2 9/5/2 10/6/2
f 12/8/1 10/6/1 9/5/1
f 9/5/1 11/7/1 12/8/1
f 14/8/2 12/6/2 11/5/2
f 11/5/2 13/7/2 14/8/2
f 16/10/1 14/8/1 13/7/1
f 13/7/1 15/9/1 16/10/1
f 18/10/2 16/8/2 15/7/2
f 15/7/2 17/9/2 18/10/2
f 20/12/1 18/10/1 17/9/1
f 17/9/1 19/11/1 20/12/1
f 22/12/2 20/10/2 19/9/2
f 19/9/2 21/11/2 22/12/2
f 24/14/1 22/12/1 21/11/1
f 21/11/1 23/13/1 24/14/1
f 26/14/2 24/12/2 23/11/2
f 23/11/2 25/13/2 26/14/2
f 6/16/3 27/15/3 2/1/3
f 2/1/3 4/3/3 6/16/3
f 10/18/3 28/17/3 27/15/3
f 27/15/3 6/16/3 10/18/3
f 14/21/3 29/20/3 28/17/3
f 28/17/3 10/18/3 14/21/3
f 18/24/3 30/23/3 29/20/3
f 29/20/3 14/21/3 18/24/3
f 22/27/3 31/26/3 30/23/3
f 30/23/3 18/24/3 22/27/3
f 26/14/3 32/2/3 31/26/3
f 31/26/3 22/27/3 26/14/3
f 3/4/4 1/2/4 33/26/4
f 33/26/4 5/30/4 3/4/4
f 5/30/4 33/26/4 34/23/4
f 34/23/4 9/31/4 5/30/4
f 9/31/4 34/23/4 35/20/4
f 35/20/4 13/21/4 9/31/4
f 13/21/4 35/20/4 36/17/4
f 36/17/4 17/34/4 13/21/4
f 17/34/4 36/17/4 37/15/4
f 37/15/4 21/35/4 17/34/4
f 21/35/4 37/15/4 38/1/4
f 38/1/4 25/13/4 21/35/4
f 25/14/5 38/2/5 32/1/5
f 32/1/5 26/13/5 25/14/5

